<svg width="132" height="132" viewBox="0 0 132 132" fill="none" xmlns="http://www.w3.org/2000/svg">
<defs>
<linearGradient id="nx-sym-grad" x1="0" y1="0" x2="132" y2="132" gradientUnits="userSpaceOnUse">
<stop offset="0" stop-color="#E9FF00"/>
<stop offset="1" stop-color="#00ECA9"/>
</linearGradient>
</defs>
<path d="M0 101.865L0 55.2007C0 37.9425 4.88664 24.4913 14.6599 14.8471C24.6904 4.94902 38.4502 0 55.9392 0H96.447V30.0749H62.4976C54.0103 30.0749 47.3233 32.4859 42.4367 37.3081C37.8072 42.1302 35.4925 48.8558 35.4925 57.4849V101.865H0Z" fill="url(#nx-sym-grad)"/>
<path d="M131.939 30.0749V76.7388C131.939 93.9969 127.053 107.448 117.28 117.092C107.249 126.99 93.4892 131.939 76.0002 131.939H35.4925V101.865H69.4418C77.9291 101.865 84.6161 99.4535 89.5028 94.6314C94.1322 89.8092 96.447 83.0836 96.447 74.4546V30.0749L131.939 30.0749Z" fill="url(#nx-sym-grad)"/>
</svg>
