<svg width="872" height="180" viewBox="0 0 872 180" fill="none" xmlns="http://www.w3.org/2000/svg">
<defs>
<linearGradient id="nx-grad" x1="0" y1="0" x2="122" y2="122" gradientUnits="userSpaceOnUse">
<stop offset="0" stop-color="#E9FF00"/>
<stop offset="1" stop-color="#00ECA9"/>
</linearGradient>
</defs>
<path d="M0 94.5616V51.2432C0 35.2223 4.53402 22.7355 13.6021 13.7827C22.9088 4.59422 35.6756 0 51.9027 0H89.4873V27.9187H57.9878C50.1129 27.9187 43.9085 30.1569 39.3744 34.6333C35.079 39.1098 32.9313 45.3532 32.9313 53.3636V94.5616H0Z" fill="url(#nx-grad)"/>
<path d="M122.419 27.9187V71.2371C122.419 87.258 117.885 99.7449 108.817 108.698C99.5099 117.886 86.7431 122.48 70.516 122.48H32.9313V94.5616H64.4309C72.3058 94.5616 78.5102 92.3234 83.0443 87.847C87.3397 83.3706 89.4873 77.1272 89.4873 69.1167V27.9187L122.419 27.9187Z" fill="url(#nx-grad)"/>
<path d="M827.43 180C814.564 180 803.154 177.624 793.198 172.874C783.243 167.97 775.432 161.151 769.765 152.417C764.251 143.529 761.494 133.185 761.494 121.386C761.494 109.74 763.868 99.3193 768.616 90.125C773.364 80.7774 779.95 73.4219 788.374 68.0586C796.798 62.6952 806.6 60.0136 817.781 60.0136C829.881 60.0136 839.913 62.6186 847.877 67.8287C855.995 73.0388 862.045 80.0878 866.027 88.9757C870.009 97.7103 872 107.518 872 118.398C872 120.083 871.923 121.845 871.77 123.684C871.77 125.523 871.617 127.132 871.311 128.511H784.009C784.774 135.714 787.148 141.843 791.131 146.9C795.113 151.804 800.167 155.558 806.294 158.163C812.573 160.615 819.466 161.841 826.97 161.841H857.526V180H827.43ZM783.779 113.571H850.634C850.634 110.659 850.328 107.594 849.715 104.376C849.102 101.005 848.03 97.7869 846.499 94.7222C844.967 91.5041 842.899 88.6692 840.296 86.2174C837.845 83.6123 834.705 81.5436 830.876 80.0112C827.2 78.4788 822.835 77.7126 817.781 77.7126C812.42 77.7126 807.672 78.7853 803.537 80.9307C799.555 82.9228 796.108 85.6811 793.198 89.2056C790.288 92.5768 788.067 96.4078 786.536 100.698C785.004 104.989 784.085 109.28 783.779 113.571Z" fill="white"/>
<path d="M702.442 179.999V96.1012C702.442 85.6809 705.353 77.5593 711.173 71.7362C717.146 65.7599 725.34 62.7717 735.755 62.7717H759.878V80.9305H739.661C734.606 80.9305 730.624 82.3863 727.714 85.2978C724.957 88.2094 723.579 92.2702 723.579 97.4803V179.999H702.442Z" fill="white"/>
<path d="M659.876 180V62.7723H681.242V180H659.876ZM670.673 44.1538C666.844 44.1538 663.475 42.7746 660.565 40.0163C657.808 37.1048 656.429 33.7335 656.429 29.9026C656.429 26.0716 657.808 22.777 660.565 20.0187C663.475 17.1071 666.844 15.6514 670.673 15.6514C674.503 15.6514 677.795 17.1071 680.552 20.0187C683.462 22.777 684.917 26.0716 684.917 29.9026C684.917 33.7335 683.462 37.1048 680.552 40.0163C677.795 42.7746 674.503 44.1538 670.673 44.1538Z" fill="white"/>
<path d="M526.652 180V12.2035H547.788V77.9429C552.536 71.8134 558.28 67.2928 565.019 64.3813C571.911 61.4697 579.033 60.014 586.385 60.014C596.8 60.014 605.836 62.2359 613.495 66.6799C621.153 70.9705 627.126 77.0235 631.414 84.8387C635.703 92.6538 637.847 101.772 637.847 112.192V180H616.711V112.422C616.711 105.373 615.103 99.3197 611.886 94.2628C608.67 89.0527 604.381 85.0685 599.021 82.3102C593.813 79.5519 588.223 78.1728 582.25 78.1728C576.276 78.1728 570.686 79.5519 565.478 82.3102C560.271 84.9153 555.982 88.7462 552.613 93.8031C549.396 98.86 547.788 104.913 547.788 111.962V180H526.652Z" fill="white"/>
<path d="M393.491 179.999L433.696 125.983C426.497 123.531 420.141 120.006 414.627 115.409C409.267 110.659 404.978 105.142 401.762 98.8595C398.698 92.4234 397.167 85.6043 397.167 78.4021V62.7717H418.533V78.4021C418.533 84.0719 419.988 89.282 422.898 94.0324C425.808 98.7828 429.714 102.614 434.615 105.525C439.516 108.437 444.8 110.276 450.467 111.042L485.847 62.7717H509.281L471.144 114.49C479.108 116.788 485.924 120.39 491.591 125.293C497.411 130.044 501.929 135.79 505.146 142.533C508.362 149.122 509.97 156.324 509.97 164.139V179.999H488.834V164.139C488.834 158.01 487.302 152.493 484.239 147.589C481.176 142.533 477.041 138.472 471.833 135.407C466.626 132.189 460.652 130.273 453.913 129.66L417.154 179.999H393.491Z" fill="white"/>
<path d="M340.348 180C327.483 180 316.072 177.624 306.117 172.874C296.161 167.97 288.35 161.151 282.683 152.417C277.169 143.529 274.412 133.185 274.412 121.386C274.412 109.74 276.786 99.3193 281.534 90.125C286.282 80.7774 292.868 73.4219 301.292 68.0586C309.716 62.6952 319.518 60.0136 330.699 60.0136C342.799 60.0136 352.831 62.6186 360.795 67.8287C368.913 73.0388 374.963 80.0878 378.945 88.9757C382.927 97.7103 384.918 107.518 384.918 118.398C384.918 120.083 384.842 121.845 384.689 123.684C384.689 125.523 384.535 127.132 384.229 128.511H296.927C297.693 135.714 300.067 141.843 304.049 146.9C308.031 151.804 313.086 155.558 319.212 158.163C325.492 160.615 332.384 161.841 339.889 161.841H370.445V180H340.348ZM296.697 113.571H363.552C363.552 110.659 363.246 107.594 362.633 104.376C362.021 101.005 360.949 97.7869 359.417 94.7222C357.885 91.5041 355.818 88.6692 353.214 86.2174C350.763 83.6123 347.624 81.5436 343.794 80.0112C340.119 78.4788 335.753 77.7126 330.699 77.7126C325.339 77.7126 320.59 78.7853 316.455 80.9307C312.473 82.9228 309.027 85.6811 306.117 89.2056C303.207 92.5768 300.986 96.4078 299.454 100.698C297.923 104.989 297.004 109.28 296.697 113.571Z" fill="white"/>
<path d="M149.416 180V112.191C149.416 101.771 151.714 92.6534 156.309 84.8382C161.057 77.0231 167.566 70.9701 175.837 66.6794C184.107 62.2355 193.527 60.0136 204.095 60.0136C214.816 60.0136 224.236 62.2355 232.353 66.6794C240.624 70.9701 247.057 77.0231 251.652 84.8382C256.4 92.6534 258.774 101.771 258.774 112.191V180H237.637V112.421C237.637 105.372 236.029 99.3193 232.813 94.2624C229.75 89.0523 225.614 85.0681 220.407 82.3098C215.352 79.5515 209.915 78.1724 204.095 78.1724C198.275 78.1724 192.761 79.5515 187.554 82.3098C182.499 85.0681 178.364 89.0523 175.148 94.2624C172.084 99.3193 170.553 105.372 170.553 112.421V180H149.416Z" fill="white"/>
</svg>
